<?xml version="1.0" encoding="iso-8859-1"?>
<!-- Uploaded to: SVG Repo, www.svgrepo.com, Generator: SVG Repo Mixer Tools -->
<svg height="800px" width="800px" version="1.1" id="Layer_1" xmlns="http://www.w3.org/2000/svg" xmlns:xlink="http://www.w3.org/1999/xlink" 
	 viewBox="0 0 241.853 241.853" xml:space="preserve">
<g>
	<polygon style="fill:#80D0E1;" points="184.412,234.353 57.442,234.353 47.442,31.747 194.412,31.747 	"/>
	<path style="fill:#FFFFFF;" d="M195.444,7.5H46.41c-6.695,0-12.123,5.428-12.123,12.123l0,0c0,6.695,5.428,12.123,12.123,12.123
		h149.035c6.696,0,12.123-5.428,12.123-12.123l0,0C207.567,12.928,202.14,7.5,195.444,7.5z"/>
	<g>
		<path style="fill:#414042;" d="M215.067,19.624C215.067,8.804,206.264,0,195.444,0H46.41C35.59,0,26.786,8.804,26.786,19.624
			c0,8.669,5.656,16.03,13.467,18.619l9.698,196.48c0.197,3.993,3.492,7.13,7.491,7.13h126.97c3.999,0,7.294-3.137,7.491-7.13
			l9.698-196.48C209.411,35.654,215.067,28.293,215.067,19.624z M46.41,15h149.034c2.549,0,4.624,2.074,4.624,4.624
			c0,2.549-2.074,4.623-4.624,4.623c-5.166,0-143.498,0-149.034,0c-2.549,0-4.624-2.074-4.624-4.623
			C41.786,17.074,43.86,15,46.41,15z M177.272,226.854H64.581l-4.26-86.304h64.814c4.142,0,7.5-3.357,7.5-7.5s-3.358-7.5-7.5-7.5
			H59.581l-4.26-86.303h131.211L177.272,226.854z"/>
		<path style="fill:#414042;" d="M150.468,140.55h14c4.142,0,7.5-3.357,7.5-7.5s-3.358-7.5-7.5-7.5h-14c-4.142,0-7.5,3.358-7.5,7.5
			S146.326,140.55,150.468,140.55z"/>
	</g>
</g>
</svg>